<!-- <svg width="92" height="97" viewBox="0 0 92 97" fill="none" xmlns="http://www.w3.org/2000/svg">
<path d="M14.7 72.7C23 66.7 35 59.2 50.8 53.5C66.3 47.9 80.1 45.8 90.1 45.1" stroke="#090015" stroke-width="2" stroke-miterlimit="10"/>
<path d="M83.9 21.6C85.3 24.8 86.7 28.5 88 32.6C89.4 37.1 90.4 41.2 91 44.9" stroke="#090015" stroke-width="2" stroke-miterlimit="10"/>
<path d="M7.3 49.9C7.3 52.6 7.6 55.9 8.4 59.5C9.7 65.2 11.8 69.8 13.6 72.9" stroke="#090015" stroke-width="2" stroke-miterlimit="10"/>
<path d="M10.6 60.9C17.9 55.9 26.9 50.5 37.7 45.7C62 34.9 75.2 33.5 79.8 33.3C82.3 33.2 84.5 33.2 85.9 33.3" stroke="#090015" stroke-width="2" stroke-miterlimit="10"/>
<path d="M8 48.3C10.9 45.5 14.3 41.7 17.6 36.9C20.6 32.4 22.8 28.1 24.3 24.6" stroke="#090015" stroke-width="2" stroke-miterlimit="10"/>
<path d="M50.7 13.5C47.1 13.7 42 14.4 36.4 16.5C31.8 18.3 28.3 20.4 25.7 22.3" stroke="#090015" stroke-width="2" stroke-miterlimit="10"/>
<path d="M53.4 13.3C56.8 15.3 61.3 17.5 67 19.1C71.7 20.5 76 21.1 79.5 21.4" stroke="#090015" stroke-width="2" stroke-miterlimit="10"/>
<path d="M6.3 44.8C4.8 43.5 3.2 41.9 3.6 41C4.1 40 6.8 40.4 7 39.8C7.2 38.9 0.900001 37.4 1.1 36.1C1.2 34.8 8.1 35.4 8.7 33.4C9.4 31.2 2.6 27.4 2.9 26.8C3.3 26.1 11.4 31.4 13.3 29.5C15.3 27.6 9 19.3 10.4 18.1C11.1 17.5 13.6 18.7 20.3 24.5" stroke="#090015" stroke-width="2" stroke-miterlimit="10"/>
<path d="M55.6 10.9C56.9 9.59999 58.4 8.29999 59.6 8.79999C60.8 9.29999 60.7 11.4 61.4 11.5C63 11.8 65.5 0.799994 66.6 0.999994C67.7 1.19999 66.5 12.3 68 12.6C68.9 12.8 69.8 9.19999 71 9.39999C72.4 9.59999 72.3 14.6 73.6 14.9C75.7 15.3 79.2 2.39999 80.8 2.69999C81.6 2.79999 82 6.09999 81.1 18.1" stroke="#090015" stroke-width="2" stroke-miterlimit="10"/>
<path d="M25.7 27.5C26.5 29.7 27.7 32.5 29.5 35.4C31.2 38.2 33.1 40.4 34.7 42.1" stroke="#090015" stroke-width="2" stroke-miterlimit="10"/>
<path d="M52.8 17.2C53.6 19.3 54.3 21.9 54.8 25C55.4 28.9 55.3 32.4 55.1 35.1" stroke="#090015" stroke-width="2" stroke-miterlimit="10"/>
<path d="M17.8 74C25.3 86.9 38 95.5 51.1 95.3C70.5 95 89.5 75.6 89.3 49.3" stroke="#090015" stroke-width="2" stroke-miterlimit="10"/>
<path d="M25.1 68.3C26.2 68.8 30.3 70.6 35 69.2C42.5 67 44.6 59 44.7 58.6" stroke="#090015" stroke-width="2" stroke-miterlimit="10"/>
<path d="M55.1 53.9C56.7 61.2 62.3 66.3 67.9 66.5C75.2 66.7 83.1 58.5 81.6 47.9" stroke="#090015" stroke-width="2" stroke-miterlimit="10"/>
<path d="M37.9 76.9C40.2 82.4 45.5 85.5 50.5 84.6C55.6 83.7 58.2 79 58.5 78.4" stroke="#090015" stroke-width="2" stroke-miterlimit="10"/>
<path d="M34 65.2C34.7732 65.2 35.4 64.5284 35.4 63.7C35.4 62.8716 34.7732 62.2 34 62.2C33.2268 62.2 32.6 62.8716 32.6 63.7C32.6 64.5284 33.2268 65.2 34 65.2Z" stroke="#090015" stroke-width="2" stroke-miterlimit="10"/>
<path d="M69 57C71.3196 57 73.2 56.0598 73.2 54.9C73.2 53.7402 71.3196 52.8 69 52.8C66.6804 52.8 64.8 53.7402 64.8 54.9C64.8 56.0598 66.6804 57 69 57Z" stroke="#090015" stroke-width="2" stroke-miterlimit="10"/>
</svg> -->
<svg width="211" height="169" viewBox="0 0 211 169" fill="none" xmlns="http://www.w3.org/2000/svg">
<path d="M66.5 72.7C74.8 66.7 86.8 59.2 102.6 53.5C118.1 47.9 131.9 45.8 141.9 45.1" stroke="#090015" stroke-width="2" stroke-miterlimit="10"/>
<path d="M135.8 21.6C137.2 24.8 138.6 28.5 139.9 32.6C141.3 37.1 142.3 41.2 142.9 44.9" stroke="#090015" stroke-width="2" stroke-miterlimit="10"/>
<path d="M59.1 49.9C59.1 52.6 59.4 55.9 60.2 59.5C61.5 65.2 63.6 69.8 65.4 72.9" stroke="#090015" stroke-width="2" stroke-miterlimit="10"/>
<path d="M62.4 60.9C69.7 55.9 78.7 50.5 89.5 45.7C113.7 34.9 127 33.5 131.6 33.4C134.1 33.3 136.3 33.3 137.7 33.4" stroke="#090015" stroke-width="2" stroke-miterlimit="10"/>
<path d="M59.8 48.3C62.7 45.5 66.1 41.7 69.4 36.9C72.4 32.4 74.6 28.1 76.1 24.6" stroke="#090015" stroke-width="2" stroke-miterlimit="10"/>
<path d="M102.5 13.5C98.9 13.7 93.8 14.4 88.2 16.5C83.6 18.3 80.1 20.4 77.5 22.3" stroke="#090015" stroke-width="2" stroke-miterlimit="10"/>
<path d="M105.3 13.3C108.7 15.3 113.2 17.5 118.9 19.1C123.6 20.5 127.9 21.1 131.4 21.4" stroke="#090015" stroke-width="2" stroke-miterlimit="10"/>
<path d="M58.2 44.8C56.7 43.5 55.1 41.9 55.5 41C56 40 58.7 40.4 58.9 39.8C59.1 38.9 52.8 37.4 53 36.1C53.1 34.8 60 35.4 60.6 33.4C61.3 31.2 54.5 27.4 54.8 26.8C55.2 26.1 63.3 31.4 65.2 29.5C67.2 27.6 60.9 19.3 62.3 18.1C63 17.5 65.5 18.7 72.2 24.5" stroke="#090015" stroke-width="2" stroke-miterlimit="10"/>
<path d="M107.4 10.9C108.7 9.6 110.2 8.3 111.4 8.8C112.6 9.3 112.5 11.4 113.2 11.5C114.8 11.7 117.3 0.800003 118.4 1C119.5 1.2 118.3 12.3 119.8 12.6C120.7 12.8 121.6 9.2 122.8 9.4C124.2 9.6 124.1 14.6 125.4 14.9C127.5 15.3 131 2.4 132.6 2.7C133.4 2.8 133.8 6.1 132.9 18.1" stroke="#090015" stroke-width="2" stroke-miterlimit="10"/>
<path d="M77.5 27.5C78.3 29.7 79.5 32.5 81.3 35.4C83 38.2 84.9 40.4 86.5 42.1" stroke="#090015" stroke-width="2" stroke-miterlimit="10"/>
<path d="M104.7 17.2C105.5 19.3 106.2 21.9 106.7 25C107.3 28.9 107.2 32.4 107 35.1" stroke="#090015" stroke-width="2" stroke-miterlimit="10"/>
<path d="M69.6 74C77.1 86.8 89.8 95.4 103 95.2C122.4 94.9 141.4 75.5 141.2 49.2" stroke="#090015" stroke-width="2" stroke-miterlimit="10"/>
<path d="M76.9 68.3C78 68.8 82.1 70.6 86.8 69.2C94.3 67 96.4 59 96.5 58.6" stroke="#090015" stroke-width="2" stroke-miterlimit="10"/>
<path d="M106.9 53.9C108.5 61.2 114.1 66.3 119.7 66.5C127 66.7 134.9 58.5 133.4 47.9" stroke="#090015" stroke-width="2" stroke-miterlimit="10"/>
<path d="M89.7 76.9C92 82.4 97.3 85.5 102.3 84.6C107.4 83.7 110 79 110.3 78.4" stroke="#090015" stroke-width="2" stroke-miterlimit="10"/>
<path d="M85.8 65.2C86.5732 65.2 87.2 64.5284 87.2 63.7C87.2 62.8716 86.5732 62.2 85.8 62.2C85.0268 62.2 84.4 62.8716 84.4 63.7C84.4 64.5284 85.0268 65.2 85.8 65.2Z" stroke="#090015" stroke-width="2" stroke-miterlimit="10"/>
<path d="M120.9 57C123.22 57 125.1 56.0598 125.1 54.9C125.1 53.7402 123.22 52.8 120.9 52.8C118.58 52.8 116.7 53.7402 116.7 54.9C116.7 56.0598 118.58 57 120.9 57Z" stroke="#090015" stroke-width="2" stroke-miterlimit="10"/>
<path d="M9.3 91.5C-0.300003 114.4 -0.100003 122 2.7 124C6.3 126.5 16.9 122.1 17.5 115.8C18 111 12.5 105.7 10.6 106.5C7.9 107.6 9.3 122.7 14.6 124C18 124.8 23.4 120 24.8 114.9C25.6 112 24.8 110 25.7 109.6C27.3 108.9 32.3 113.8 32.3 119.3C32.3 121.8 31.2 125.3 29.4 125.5C27.6 125.7 26 122.4 25.9 122.2" stroke="#090015" stroke-width="2" stroke-miterlimit="10"/>
<path d="M56.9 99.9C53.2 94.2 48.1 90.7 44.5 91.8C38.9 93.6 37.5 107 42.2 110.8C46.5 114.3 54.4 108.6 57.4 112.2C59.3 114.5 58 118.8 56.5 121.1C56.3 121.4 52.6 127.3 47.6 126C44.9 125.3 42.8 122.8 42.1 119.7" stroke="#090015" stroke-width="2" stroke-miterlimit="10"/>
<path d="M65.5 115.4C66.1 115 70.9 111.7 71.3 105.6C71.6 99 66.5 93 63.8 93.5C60.1 94.3 60.2 107.8 61.8 115.9C62.4 119 63.4 122.1 66.1 124.2C66.5 124.5 69.9 127.1 72.4 125.9C76.2 124.2 75.8 115 75.9 115C76 115 73.7 123.7 77.1 126.2C78.6 127.3 81.3 127.2 82.6 125.9C84.7 123.7 81.1 119.6 83.2 116.7C84.6 114.6 88.3 114.1 90.7 115.3C95.2 117.5 95.3 125 92.7 127.1C90.5 128.8 87.3 125.9 84.9 127.4C83 128.6 81.9 132.6 85.2 145" stroke="#090015" stroke-width="2" stroke-miterlimit="10"/>
<path d="M106.1 115.4C104.2 113.5 101.5 113.1 99.5 114.2C96.3 116 96.4 120.9 98.1 122.3C100.1 123.9 104 120.1 105.9 121.7C107.3 122.9 107 126.6 105 128.3C102.9 130.2 98.9 129.9 96.4 126.9" stroke="#090015" stroke-width="2" stroke-miterlimit="10"/>
<path d="M128 118.6C126.3 116.5 122.8 112.9 120.5 113.7C117.4 114.8 116.1 124.1 120.5 127.8C122.6 129.6 126.3 130.4 128.6 129C130.3 127.9 134.4 123.3 126 97.9" stroke="#090015" stroke-width="2" stroke-miterlimit="10"/>
<path d="M135.4 125.2C139.5 125.4 142.7 123.1 143.2 120.6C143.8 117.1 138.8 113.2 136.3 114C132.2 115.3 131.6 130 135.7 131.8C136.7 132.2 137.9 132 138.6 131.8C141.8 131.1 143.4 128.4 143.8 127.8" stroke="#090015" stroke-width="2" stroke-miterlimit="10"/>
<path d="M155.3 127.2C150 105.6 149.7 100.2 150.7 99.9C152.4 99.4 156.8 113.5 161.9 113.1C166.5 112.8 167.7 99.1 169.4 99.3C171.9 99.6 171.3 128.9 172 128.9C172.5 128.9 170.7 114.5 178.3 109C181.8 106.5 187.1 106 191 108.4C196.3 111.7 198.3 120 194.5 125.1C192.4 127.9 188.4 129.7 184.4 128.8C179.8 127.8 176.3 123.6 176.1 118.4" stroke="#090015" stroke-width="2" stroke-miterlimit="10"/>
<path d="M198.5 128.6C196.2 116.6 195.9 110.4 197.3 109.9C198.9 109.4 202.6 115.4 208.5 128C208.8 121.6 209.1 115.1 209.4 108.7" stroke="#090015" stroke-width="2" stroke-miterlimit="10"/>
<path d="M67 162.6C67.9 163.5 69 164.5 69.5 164.2C71 163.2 59.5 149.5 63.5 141.6C66 136.7 74.9 133.8 79.7 137.4C82.7 139.6 84.3 144.5 82.9 148.3C82.7 148.9 82.1 150.3 80.8 151.5C77.9 153.9 72.8 153.6 68.1 150.8" stroke="#090015" stroke-width="2" stroke-miterlimit="10"/>
<path d="M84.6 161C86.2 160.4 106.2 152.3 105.4 144.4C105.3 143.2 104.7 141.9 103.6 140.9C100.1 137.6 92 138.8 89.9 142.3C85.9 148.8 100 166.6 105.1 164.9C109.4 163.4 104.4 148.9 113.6 140.6C114.6 139.7 118.8 136.1 122.1 137.4C126 138.9 127.5 147 124.6 150.8C122 154.2 117.1 152.6 116.5 154.7C115.5 157.8 124.7 167.1 134.1 165.3C142.5 163.7 149 153.7 146.4 147C144.6 142.3 138.1 138.9 135.1 140.7C131.8 142.6 132.6 150.7 135.1 155.9C139.5 165.1 150.2 167.4 152.4 167.9" stroke="#090015" stroke-width="2" stroke-miterlimit="10"/>
</svg>
