<svg width="92" height="97" viewBox="0 0 92 97" fill="none" xmlns="http://www.w3.org/2000/svg">
<path d="M14.7 72.7C23 66.7 35 59.2 50.8 53.5C66.3 47.9 80.1 45.8 90.1 45.1" stroke="#090015" stroke-width="2" stroke-miterlimit="10"/>
<path d="M83.9 21.6C85.3 24.8 86.7 28.5 88 32.6C89.4 37.1 90.4 41.2 91 44.9" stroke="#090015" stroke-width="2" stroke-miterlimit="10"/>
<path d="M7.3 49.9C7.3 52.6 7.6 55.9 8.4 59.5C9.7 65.2 11.8 69.8 13.6 72.9" stroke="#090015" stroke-width="2" stroke-miterlimit="10"/>
<path d="M10.6 60.9C17.9 55.9 26.9 50.5 37.7 45.7C62 34.9 75.2 33.5 79.8 33.3C82.3 33.2 84.5 33.2 85.9 33.3" stroke="#090015" stroke-width="2" stroke-miterlimit="10"/>
<path d="M8 48.3C10.9 45.5 14.3 41.7 17.6 36.9C20.6 32.4 22.8 28.1 24.3 24.6" stroke="#090015" stroke-width="2" stroke-miterlimit="10"/>
<path d="M50.7 13.5C47.1 13.7 42 14.4 36.4 16.5C31.8 18.3 28.3 20.4 25.7 22.3" stroke="#090015" stroke-width="2" stroke-miterlimit="10"/>
<path d="M53.4 13.3C56.8 15.3 61.3 17.5 67 19.1C71.7 20.5 76 21.1 79.5 21.4" stroke="#090015" stroke-width="2" stroke-miterlimit="10"/>
<path d="M6.3 44.8C4.8 43.5 3.2 41.9 3.6 41C4.1 40 6.8 40.4 7 39.8C7.2 38.9 0.900001 37.4 1.1 36.1C1.2 34.8 8.1 35.4 8.7 33.4C9.4 31.2 2.6 27.4 2.9 26.8C3.3 26.1 11.4 31.4 13.3 29.5C15.3 27.6 9 19.3 10.4 18.1C11.1 17.5 13.6 18.7 20.3 24.5" stroke="#090015" stroke-width="2" stroke-miterlimit="10"/>
<path d="M55.6 10.9C56.9 9.59999 58.4 8.29999 59.6 8.79999C60.8 9.29999 60.7 11.4 61.4 11.5C63 11.8 65.5 0.799994 66.6 0.999994C67.7 1.19999 66.5 12.3 68 12.6C68.9 12.8 69.8 9.19999 71 9.39999C72.4 9.59999 72.3 14.6 73.6 14.9C75.7 15.3 79.2 2.39999 80.8 2.69999C81.6 2.79999 82 6.09999 81.1 18.1" stroke="#090015" stroke-width="2" stroke-miterlimit="10"/>
<path d="M25.7 27.5C26.5 29.7 27.7 32.5 29.5 35.4C31.2 38.2 33.1 40.4 34.7 42.1" stroke="#090015" stroke-width="2" stroke-miterlimit="10"/>
<path d="M52.8 17.2C53.6 19.3 54.3 21.9 54.8 25C55.4 28.9 55.3 32.4 55.1 35.1" stroke="#090015" stroke-width="2" stroke-miterlimit="10"/>
<path d="M17.8 74C25.3 86.9 38 95.5 51.1 95.3C70.5 95 89.5 75.6 89.3 49.3" stroke="#090015" stroke-width="2" stroke-miterlimit="10"/>
<path d="M25.1 68.3C26.2 68.8 30.3 70.6 35 69.2C42.5 67 44.6 59 44.7 58.6" stroke="#090015" stroke-width="2" stroke-miterlimit="10"/>
<path d="M55.1 53.9C56.7 61.2 62.3 66.3 67.9 66.5C75.2 66.7 83.1 58.5 81.6 47.9" stroke="#090015" stroke-width="2" stroke-miterlimit="10"/>
<path d="M37.9 76.9C40.2 82.4 45.5 85.5 50.5 84.6C55.6 83.7 58.2 79 58.5 78.4" stroke="#090015" stroke-width="2" stroke-miterlimit="10"/>
<path d="M34 65.2C34.7732 65.2 35.4 64.5284 35.4 63.7C35.4 62.8716 34.7732 62.2 34 62.2C33.2268 62.2 32.6 62.8716 32.6 63.7C32.6 64.5284 33.2268 65.2 34 65.2Z" stroke="#090015" stroke-width="2" stroke-miterlimit="10"/>
<path d="M69 57C71.3196 57 73.2 56.0598 73.2 54.9C73.2 53.7402 71.3196 52.8 69 52.8C66.6804 52.8 64.8 53.7402 64.8 54.9C64.8 56.0598 66.6804 57 69 57Z" stroke="#090015" stroke-width="2" stroke-miterlimit="10"/>
</svg>
